<svg width="373" height="323" viewBox="0 0 373 323" fill="none" xmlns="http://www.w3.org/2000/svg">
<path fill-rule="evenodd" clip-rule="evenodd" d="M299.955 248.639L329.903 254.401C359.635 260.124 382.327 228.252 367.187 202.034L260.909 17.9754C245.769 -8.24331 206.819 -4.53002 196.909 24.0768L186.924 52.8918C192.65 57.0389 197.698 62.5111 201.64 69.3396L293.067 227.676C297.009 234.503 299.225 241.609 299.955 248.639ZM281.818 245.15C281.029 242.161 279.819 239.188 278.146 236.292L186.719 77.953C185.045 75.0545 183.074 72.518 180.88 70.3416L161.545 126.15L196.909 228.81L281.818 245.15Z" fill="black"/>
<path d="M30.7672 305.267C8.53938 301.768 -4.80074 278.666 3.28205 257.668L42.6089 155.509C53.2825 127.778 91.3378 124.801 106.196 150.534L175.018 269.72C189.876 295.452 168.269 326.917 138.914 322.295L30.7672 305.267Z" fill="black"/>
<path fill-rule="evenodd" clip-rule="evenodd" d="M196.907 282.86L242.868 288.984C271.939 292.855 292.805 261.684 278.142 236.288L186.713 77.9491C172.05 52.5552 134.617 55.0369 123.437 82.1452L105.76 125.005C111.743 129.201 117.02 134.826 121.115 141.916L189.937 261.102C194.031 268.195 196.263 275.579 196.907 282.86ZM179.14 280.494C178.398 276.865 177.047 273.237 175.014 269.716L106.194 150.53C104.162 147.011 101.696 144.028 98.9245 141.574L66.2931 220.691C57.4516 242.13 71.3098 266.128 94.2973 269.191L179.14 280.494Z" fill="black"/>
</svg>
